# xmcd CD database file
#
# Track frame offsets:
#	150
#	3264
#	5968
#	10110
#	13552
#	18011
#	22547
#	24701
#	27526
#	30524
#	35247
#	40481
#	46914
#	51222
#	56485
#	60711
#	67849
#	70299
#	73916
#	78601
#	83141
#	85517
#	90006
#	91183
#	95908
#	106018
#	115513
#	119257
#	124061
#	126415
#	131605
#	138582
#	143219
#	147026
#	153635
#	159693
#	162837
#	166336
#	169947
#	173897
#	176893
#	179747
#	182931
#	187504
#	191058
#	194638
#	198760
#	201817
#	204990
#	210636
#	214217
#	224625
#	229677
#	233585
#	238385
#	243131
#	248231
#	251954
#	256915
#	258772
#	262765
#
# Disc length: 3591 seconds
#
# Revision: 0
# Processed by: cddbd v1.5.2PL0 Copyright (c) Steve Scherf et al.
# Submitted via: CDex 1.75
#
DISCID=5a0e053d
DTITLE=MISSISSIPPI FIDDLE - DISC TWO
DYEAR=1939
DGENRE=Country
TTITLE0=INTERVIEW_F-KITTRELL
TTITLE1=INDIAN-WAR-WHOOP_F-KITTRELL
TTITLE2=CORN-STALK-FIDDLE_F-KITTRELL
TTITLE3=GOIN'-TO-THE-WEDDIN'_F-KITTRELL
TTITLE4=LITTLE-BOY-WENT-ACOURTIN'_F-KITTRELL
TTITLE5=I-WANT-TO-GO-TO-MEETIN_GOT-NO-SHOES_F-KITTRELL
TTITLE6=CINDY-JANE_F-KITTRELL
TTITLE7=RYE-STRAW_F-KITTRELL
TTITLE8=HELL-AFTER-THE-YEARLINGS_F-KITTRELL
TTITLE9=PUNCHEON_FLOOR_HC_SHARP
TTITLE10=GREAT-BIG-YAM-POTATOES_HC_SHARP
TTITLE11=LEATHER-BRITCHES_HC_SHARP
TTITLE12=LIZA-JANE_HC_SHARP
TTITLE13=EIGHTH-OF-JAN UARY_HC_SHARP
TTITLE14=MISSISSIPPI-SAWYER_HC_SHARP
TTITLE15=INTERVIEW_WA_BLEDSOE
TTITLE16=PRETTIEST-LITTLE-GIRL-IN-THE-COUNTY_WA_BLEDSOE
TTITLE17=BIG-FOOT-NIGGER-IN-A-SANDY-LOT_WA_BLEDSOE
TTITLE18=STONEY-POINT_WA_BLEDSOE
TTITLE19=FAREWELL-MARY-ANNE_WA_BLEDSOE
TTITLE20=OLD-MOLLY-HARE_WA_BLEDSOE
TTITLE21=BILL-CHEATHAM_WA_BLEDSOE
TTITLE22=INTERVIEW_HORACE-KINNARD
TTITLE23=LIZA-JANE_HORACE-KINNARD
TTITLE24=RALIROAD-BILL_HORACE-KINNARD
TTITLE25=MY-LITTLE-DONY_CHARLES_LONG
TTITLE26=HARD-ROAD-TO-TEXAS_CHARLES_LONG
TTITLE27=DRUNKARD'S-HICUPS_CHARLES_LONG
TTITLE28=SALLY-O_CHARLES_LONG
TTITLE29=JONES-COUNTY_CHARLES_LONG
TTITLE30=STEAMBOAT_CHARLES_LONG
TTITLE31=FISHER'S HORNPIPE_CHARLES_LONG
TTITLE32=ALABAMA-WALTZ_CHARLES_LONG
TTITLE33=BIG-EYED-RABBIT_CHARLES_LONG
TTITLE34=LITTLE-WILLER_CHARLES_LONG
TTITLE35=ROCK-CANDY_CHARLES_LONG
TTITLE36=MY-OL-DOG'S-TRAILIN-UP-A-SQUIRRL_CHARLES_LONG
TTITLE37=COLD-FROSTYT-MORNING_SB-TUCKER
TTITLE38=BRAGG'S-RETREAT_SB-TUCKER
TTITLE39=HOG-EYE_SB-TUCKER
TTITLE40=NONAME_SB-TUCKER
TTITLE41=THROW-THE-SOAP-SUDS_SB-TUCKER
TTITLE42=SOLDIER'S-JOY_SB-TUCKER
TTITLE43=MISSISSIPPI-SAWYER_SB-TUCKER
TTITLE44=FISHER'S-HORNPIPE_SB-TUCKER
TTITLE45=ARKANSAS-TRAVELER_SB-TUCKER
TTITLE46=RUNN-NIGGER-RUN_SB-TUCKER
TTITLE47=RAKER'S-HORNPIPE_SB-TUCKER
TTITLE48=TEXAS-WAGON_SB-TUCKER
TTITLE49=INDIAN-EAT-THE-WOODPECKER_SB-TUCKER
TTITLE50=DEVIL'S-DREAM_SB-TUCKER
TTITLE51=TOM-AND-JERRY_SB-TUCKER
TTITLE52=CHRISTMAS-TIMES-IN-THE-MORNING_SB-TUCKER
TTITLE53=POUND-CAKE-AND-SUGAR_SB-TUCKER
TTITLE54=JOKE-ON-THE-PUPPY(RYE-STRAW)_SB-TUCKER
TTITLE55=HASTE-TO-THE-WEDDING_SB-TUCKER
TTITLE56=UNKN-JIG_SB-TUCKER
TTITLE57=CIRCUS-PIECE_SB-TUCKER
TTITLE58=CHIPPY-GET-YOUR-HAIR-CUT_SB-TUCKER
TTITLE59=LEATHER-BREECHES_SB-TUCKER
TTITLE60=CALICO_SB-TUCKER
EXTD=YEAR: 1939
EXTT0=
EXTT1=
EXTT2=
EXTT3=
EXTT4=
EXTT5=
EXTT6=
EXTT7=
EXTT8=
EXTT9=
EXTT10=
EXTT11=
EXTT12=
EXTT13=
EXTT14=
EXTT15=
EXTT16=
EXTT17=
EXTT18=
EXTT19=
EXTT20=
EXTT21=
EXTT22=
EXTT23=
EXTT24=
EXTT25=
EXTT26=
EXTT27=
EXTT28=
EXTT29=
EXTT30=
EXTT31=
EXTT32=
EXTT33=
EXTT34=
EXTT35=
EXTT36=
EXTT37=
EXTT38=
EXTT39=
EXTT40=
EXTT41=
EXTT42=
EXTT43=
EXTT44=
EXTT45=
EXTT46=
EXTT47=
EXTT48=
EXTT49=
EXTT50=
EXTT51=
EXTT52=
EXTT53=
EXTT54=
EXTT55=
EXTT56=
EXTT57=
EXTT58=
EXTT59=
EXTT60=
PLAYORDER=
